<mxfile host="app.diagrams.net" modified="2023-03-02T04:45:02.909Z" agent="5.0 (Macintosh; Intel Mac OS X 10_15_7) AppleWebKit/537.36 (KHTML, like Gecko) Chrome/110.0.0.0 Safari/537.36" etag="iERgLacbGK7s3MfLru-a" version="20.8.23" type="github">
  <diagram name="Страница 1" id="fKqOjSuukLFQEkXzYm4n">
    <mxGraphModel dx="993" dy="684" grid="1" gridSize="10" guides="1" tooltips="1" connect="1" arrows="1" fold="1" page="1" pageScale="1" pageWidth="827" pageHeight="1169" math="0" shadow="0">
      <root>
        <mxCell id="0" />
        <mxCell id="1" parent="0" />
        <mxCell id="5YQWLy8omhDsQ3KZEHmy-1" value="" style="endArrow=none;dashed=1;html=1;dashPattern=1 3;strokeWidth=2;rounded=0;" edge="1" parent="1">
          <mxGeometry width="50" height="50" relative="1" as="geometry">
            <mxPoint x="10" y="240" as="sourcePoint" />
            <mxPoint x="800" y="240" as="targetPoint" />
          </mxGeometry>
        </mxCell>
        <mxCell id="5YQWLy8omhDsQ3KZEHmy-2" value="БДРВ" style="shape=cylinder3;whiteSpace=wrap;html=1;boundedLbl=1;backgroundOutline=1;size=15;" vertex="1" parent="1">
          <mxGeometry x="560" y="120" width="60" height="80" as="geometry" />
        </mxCell>
        <mxCell id="5YQWLy8omhDsQ3KZEHmy-4" value="Модель планов" style="rounded=0;whiteSpace=wrap;html=1;" vertex="1" parent="1">
          <mxGeometry x="420" y="130" width="120" height="60" as="geometry" />
        </mxCell>
        <mxCell id="5YQWLy8omhDsQ3KZEHmy-5" value="Модель фактов" style="rounded=0;whiteSpace=wrap;html=1;" vertex="1" parent="1">
          <mxGeometry x="280" y="130" width="120" height="60" as="geometry" />
        </mxCell>
        <mxCell id="5YQWLy8omhDsQ3KZEHmy-6" value="ЕОМ" style="rounded=0;whiteSpace=wrap;html=1;" vertex="1" parent="1">
          <mxGeometry x="140" y="130" width="120" height="60" as="geometry" />
        </mxCell>
        <mxCell id="5YQWLy8omhDsQ3KZEHmy-7" value="ZIOT" style="text;html=1;strokeColor=none;fillColor=none;align=left;verticalAlign=middle;whiteSpace=wrap;rounded=0;" vertex="1" parent="1">
          <mxGeometry x="10" y="200" width="50" height="30" as="geometry" />
        </mxCell>
        <mxCell id="5YQWLy8omhDsQ3KZEHmy-8" value="Backend СОУ" style="text;html=1;strokeColor=none;fillColor=none;align=left;verticalAlign=middle;whiteSpace=wrap;rounded=0;" vertex="1" parent="1">
          <mxGeometry x="10" y="250" width="90" height="30" as="geometry" />
        </mxCell>
        <mxCell id="5YQWLy8omhDsQ3KZEHmy-9" value="Бизнес логика формирования отчета 1" style="rounded=0;whiteSpace=wrap;html=1;" vertex="1" parent="1">
          <mxGeometry x="140" y="280" width="110" height="60" as="geometry" />
        </mxCell>
        <mxCell id="5YQWLy8omhDsQ3KZEHmy-10" value="Бизнес логика формирования отчета 1" style="rounded=0;whiteSpace=wrap;html=1;" vertex="1" parent="1">
          <mxGeometry x="260" y="280" width="110" height="60" as="geometry" />
        </mxCell>
        <mxCell id="5YQWLy8omhDsQ3KZEHmy-11" value="Бизнес логика формирования отчета 1" style="rounded=0;whiteSpace=wrap;html=1;" vertex="1" parent="1">
          <mxGeometry x="380" y="280" width="110" height="60" as="geometry" />
        </mxCell>
        <mxCell id="5YQWLy8omhDsQ3KZEHmy-12" value="Бизнес логика формирования отчета 1" style="rounded=0;whiteSpace=wrap;html=1;" vertex="1" parent="1">
          <mxGeometry x="500" y="280" width="110" height="60" as="geometry" />
        </mxCell>
        <mxCell id="5YQWLy8omhDsQ3KZEHmy-13" value="Данные" style="shape=flexArrow;endArrow=classic;html=1;rounded=0;" edge="1" parent="1">
          <mxGeometry x="-0.3333" y="30" width="50" height="50" relative="1" as="geometry">
            <mxPoint x="380" y="210" as="sourcePoint" />
            <mxPoint x="380" y="270" as="targetPoint" />
            <mxPoint as="offset" />
          </mxGeometry>
        </mxCell>
        <mxCell id="5YQWLy8omhDsQ3KZEHmy-16" value="ReportStorage&lt;br&gt;Набор унифицированных классов для представления отчетов:&lt;br&gt;Report, Header, Footer, Group, Subgroup, Column, Row, ..." style="rounded=0;whiteSpace=wrap;html=1;" vertex="1" parent="1">
          <mxGeometry x="140" y="350" width="470" height="170" as="geometry" />
        </mxCell>
        <mxCell id="5YQWLy8omhDsQ3KZEHmy-17" value="" style="endArrow=none;dashed=1;html=1;dashPattern=1 3;strokeWidth=2;rounded=0;" edge="1" parent="1">
          <mxGeometry width="50" height="50" relative="1" as="geometry">
            <mxPoint x="10" y="560" as="sourcePoint" />
            <mxPoint x="800" y="560" as="targetPoint" />
          </mxGeometry>
        </mxCell>
        <mxCell id="5YQWLy8omhDsQ3KZEHmy-18" value="Frontend СОУ" style="text;html=1;strokeColor=none;fillColor=none;align=left;verticalAlign=middle;whiteSpace=wrap;rounded=0;" vertex="1" parent="1">
          <mxGeometry x="10" y="560" width="90" height="30" as="geometry" />
        </mxCell>
        <mxCell id="5YQWLy8omhDsQ3KZEHmy-19" value="Данные" style="shape=flexArrow;endArrow=classic;html=1;rounded=0;" edge="1" parent="1">
          <mxGeometry x="-0.3333" y="30" width="50" height="50" relative="1" as="geometry">
            <mxPoint x="374.5" y="530" as="sourcePoint" />
            <mxPoint x="374.5" y="590" as="targetPoint" />
            <mxPoint as="offset" />
          </mxGeometry>
        </mxCell>
        <mxCell id="5YQWLy8omhDsQ3KZEHmy-20" value="Унифицированная &lt;br&gt;экранная &lt;br&gt;форма отчета" style="rounded=0;whiteSpace=wrap;html=1;" vertex="1" parent="1">
          <mxGeometry x="140" y="600" width="140" height="120" as="geometry" />
        </mxCell>
        <mxCell id="5YQWLy8omhDsQ3KZEHmy-21" value="Отчет&amp;nbsp;&lt;br&gt;DataLink" style="rounded=0;whiteSpace=wrap;html=1;" vertex="1" parent="1">
          <mxGeometry x="300" y="600" width="120" height="60" as="geometry" />
        </mxCell>
        <mxCell id="5YQWLy8omhDsQ3KZEHmy-22" value="Отчет&amp;nbsp;&lt;br&gt;DataLink" style="rounded=0;whiteSpace=wrap;html=1;" vertex="1" parent="1">
          <mxGeometry x="310" y="610" width="120" height="60" as="geometry" />
        </mxCell>
        <mxCell id="5YQWLy8omhDsQ3KZEHmy-23" value="Отчет&amp;nbsp;&lt;br&gt;DataLink" style="rounded=0;whiteSpace=wrap;html=1;" vertex="1" parent="1">
          <mxGeometry x="320" y="620" width="120" height="60" as="geometry" />
        </mxCell>
        <mxCell id="5YQWLy8omhDsQ3KZEHmy-24" value="Отчет&amp;nbsp;&lt;br&gt;DataLink" style="rounded=0;whiteSpace=wrap;html=1;" vertex="1" parent="1">
          <mxGeometry x="330" y="630" width="120" height="60" as="geometry" />
        </mxCell>
        <mxCell id="5YQWLy8omhDsQ3KZEHmy-25" value="Отчет&amp;nbsp;&lt;br&gt;ClosedXML" style="rounded=0;whiteSpace=wrap;html=1;" vertex="1" parent="1">
          <mxGeometry x="460" y="600" width="120" height="60" as="geometry" />
        </mxCell>
        <mxCell id="5YQWLy8omhDsQ3KZEHmy-26" value="Параметры&lt;br&gt;формирования" style="endArrow=classic;startArrow=classic;html=1;rounded=0;entryX=0;entryY=0.5;entryDx=0;entryDy=0;exitX=0;exitY=0.5;exitDx=0;exitDy=0;" edge="1" parent="1" source="5YQWLy8omhDsQ3KZEHmy-20" target="5YQWLy8omhDsQ3KZEHmy-9">
          <mxGeometry x="0.0638" y="30" width="50" height="50" relative="1" as="geometry">
            <mxPoint x="120" y="590" as="sourcePoint" />
            <mxPoint x="110" y="450" as="targetPoint" />
            <Array as="points">
              <mxPoint x="90" y="510" />
              <mxPoint x="90" y="390" />
            </Array>
            <mxPoint as="offset" />
          </mxGeometry>
        </mxCell>
        <mxCell id="5YQWLy8omhDsQ3KZEHmy-27" value="Отчет&amp;nbsp;&lt;br&gt;ClosedXML" style="rounded=0;whiteSpace=wrap;html=1;" vertex="1" parent="1">
          <mxGeometry x="470" y="610" width="120" height="60" as="geometry" />
        </mxCell>
        <mxCell id="5YQWLy8omhDsQ3KZEHmy-28" value="Отчет&amp;nbsp;&lt;br&gt;ClosedXML" style="rounded=0;whiteSpace=wrap;html=1;" vertex="1" parent="1">
          <mxGeometry x="480" y="620" width="120" height="60" as="geometry" />
        </mxCell>
        <mxCell id="5YQWLy8omhDsQ3KZEHmy-29" value="Отчет&amp;nbsp;&lt;br&gt;ClosedXML" style="rounded=0;whiteSpace=wrap;html=1;" vertex="1" parent="1">
          <mxGeometry x="490" y="630" width="120" height="60" as="geometry" />
        </mxCell>
      </root>
    </mxGraphModel>
  </diagram>
</mxfile>
